<svg width="400" height="400" viewBox="0 0 400 400" xmlns="http://www.w3.org/2000/svg"><mask id="satori_om-id"><rect x="0" y="0" width="400" height="400" fill="#fff"/></mask><rect x="0" y="0" width="400" height="400" fill="#fff"/><mask id="satori_om-id-0"><rect x="20" y="181" width="361" height="38" fill="#fff"/></mask><path fill="black" d="M36.5 199.5L36.5 199.5L32.0 199.8Q31.9 199.2 31.5 198.8Q31.2 198.3 30.6 198.0Q29.9 197.8 29.1 197.8L29.1 197.8Q28.0 197.8 27.2 198.2Q26.4 198.7 26.4 199.5L26.4 199.5Q26.4 200.1 26.9 200.5Q27.4 201.0 28.6 201.2L28.6 201.2L31.8 201.9Q34.4 202.4 35.6 203.5Q36.9 204.7 36.9 206.6L36.9 206.6Q36.9 208.3 35.8 209.6Q34.8 210.9 33.1 211.6Q31.4 212.3 29.1 212.3L29.1 212.3Q25.6 212.3 23.6 210.9Q21.5 209.4 21.2 206.9L21.2 206.9L25.9 206.7Q26.1 207.8 27.0 208.3Q27.8 208.9 29.1 208.9L29.1 208.9Q30.4 208.9 31.1 208.4Q31.9 207.9 31.9 207.1L31.9 207.1Q31.9 206.4 31.4 206.0Q30.8 205.6 29.7 205.3L29.7 205.3L26.7 204.7Q24.1 204.2 22.9 203.0Q21.6 201.7 21.6 199.8L21.6 199.8Q21.6 198.1 22.5 196.9Q23.5 195.6 25.1 195.0Q26.8 194.3 29.0 194.3L29.0 194.3Q32.3 194.3 34.2 195.7Q36.1 197.1 36.5 199.5ZM44.8 201.9L44.8 201.9L44.8 212L39.9 212L39.9 188.7L44.6 188.7L44.6 197.6L44.8 197.6Q45.4 196.1 46.7 195.2Q48.0 194.3 50.0 194.3L50.0 194.3Q51.9 194.3 53.2 195.1Q54.6 195.9 55.3 197.4Q56.1 198.8 56.1 200.9L56.1 200.9L56.1 212L51.2 212L51.2 201.8Q51.2 200.1 50.4 199.2Q49.6 198.3 48.1 198.3L48.1 198.3Q47.1 198.3 46.4 198.8Q45.6 199.2 45.2 200.0Q44.8 200.8 44.8 201.9ZM64.9 212.3L64.9 212.3Q63.2 212.3 61.9 211.7Q60.6 211.2 59.8 210.0Q59.1 208.9 59.1 207.1L59.1 207.1Q59.1 205.7 59.6 204.7Q60.1 203.7 61.1 203.1Q62.0 202.5 63.2 202.2Q64.3 201.9 65.6 201.8L65.6 201.8Q67.1 201.6 68.1 201.4Q69.0 201.3 69.4 201.0Q69.9 200.7 69.9 200.2L69.9 200.2L69.9 200.1Q69.9 199.0 69.2 198.4Q68.5 197.9 67.3 197.9L67.3 197.9Q66.0 197.9 65.2 198.4Q64.4 199 64.2 199.9L64.2 199.9L59.7 199.5Q60.0 197.9 61.0 196.7Q62.0 195.6 63.6 194.9Q65.2 194.3 67.3 194.3L67.3 194.3Q68.7 194.3 70.1 194.7Q71.4 195 72.4 195.7Q73.5 196.4 74.1 197.6Q74.7 198.7 74.7 200.2L74.7 200.2L74.7 212L70.1 212L70.1 209.6L70.0 209.6Q69.5 210.4 68.8 211.0Q68.1 211.6 67.1 212.0Q66.2 212.3 64.9 212.3ZM66.3 209.0L66.3 209.0Q67.3 209.0 68.1 208.6Q69.0 208.1 69.4 207.4Q69.9 206.7 69.9 205.8L69.9 205.8L69.9 203.9Q69.7 204.1 69.3 204.2Q68.9 204.3 68.4 204.4Q67.9 204.5 67.4 204.6Q66.9 204.6 66.5 204.7L66.5 204.7Q65.7 204.8 65.0 205.1Q64.4 205.4 64.0 205.8Q63.7 206.3 63.7 207.0L63.7 207.0Q63.7 208.0 64.4 208.5Q65.1 209.0 66.3 209.0ZM84.9 212.3L84.9 212.3Q82.9 212.3 81.3 211.3Q79.7 210.2 78.7 208.2Q77.8 206.2 77.8 203.3L77.8 203.3Q77.8 200.3 78.8 198.3Q79.7 196.3 81.3 195.3Q83.0 194.3 84.9 194.3L84.9 194.3Q86.3 194.3 87.3 194.8Q88.3 195.3 88.9 196.0Q89.5 196.8 89.8 197.5L89.8 197.5L90.0 197.5L90.0 188.7L94.8 188.7L94.8 212L90.0 212L90.0 209.2L89.8 209.2Q89.5 209.9 88.9 210.6Q88.3 211.4 87.3 211.8Q86.3 212.3 84.9 212.3ZM86.4 208.4L86.4 208.4Q87.6 208.4 88.4 207.8Q89.2 207.1 89.7 206.0Q90.1 204.8 90.1 203.3L90.1 203.3Q90.1 201.7 89.7 200.6Q89.2 199.4 88.4 198.8Q87.6 198.2 86.4 198.2L86.4 198.2Q85.2 198.2 84.4 198.8Q83.6 199.5 83.2 200.6Q82.8 201.8 82.8 203.3L82.8 203.3Q82.8 204.8 83.2 206.0Q83.6 207.1 84.4 207.8Q85.2 208.4 86.4 208.4ZM106.7 212.3L106.7 212.3Q104.0 212.3 102.1 211.2Q100.1 210.1 99.1 208.0Q98.1 206.0 98.1 203.3L98.1 203.3Q98.1 200.7 99.1 198.6Q100.2 196.6 102.1 195.5Q104 194.3 106.6 194.3L106.6 194.3Q108.9 194.3 110.6 195.1Q112.4 196.0 113.4 197.5Q114.4 199.0 114.5 201L114.5 201L109.9 201Q109.7 199.7 108.9 198.9Q108.1 198.1 106.7 198.1L106.7 198.1Q105.6 198.1 104.8 198.7Q103.9 199.3 103.5 200.5Q103 201.6 103 203.3L103 203.3Q103 204.9 103.5 206.1Q103.9 207.3 104.8 207.9Q105.6 208.5 106.7 208.5L106.7 208.5Q107.6 208.5 108.2 208.2Q108.9 207.8 109.3 207.2Q109.8 206.5 109.9 205.6L109.9 205.6L114.5 205.6Q114.4 207.6 113.4 209.1Q112.4 210.6 110.7 211.5Q109 212.3 106.7 212.3ZM122.4 201.9L122.4 201.9L122.4 212L117.6 212L117.6 194.5L122.2 194.5L122.2 197.6L122.4 197.6Q123.0 196.1 124.3 195.2Q125.7 194.3 127.6 194.3L127.6 194.3Q129.5 194.3 130.8 195.1Q132.2 195.9 132.9 197.4Q133.7 198.9 133.7 200.9L133.7 200.9L133.7 212L128.8 212L128.8 201.8Q128.8 200.1 128.0 199.2Q127.2 198.3 125.7 198.3L125.7 198.3Q124.8 198.3 124.0 198.8Q123.3 199.2 122.8 200.0Q122.4 200.8 122.4 201.9ZM137.7 200.5L148.4 200.5L148.4 204.4L137.7 204.4L137.7 200.5ZM158.9 212.3L158.9 212.3Q156.9 212.3 155.3 211.3Q153.7 210.2 152.8 208.2Q151.8 206.2 151.8 203.3L151.8 203.3Q151.8 200.3 152.8 198.3Q153.8 196.3 155.4 195.3Q157.0 194.3 158.9 194.3L158.9 194.3Q160.4 194.3 161.3 194.8Q162.3 195.3 162.9 196.0Q163.5 196.8 163.9 197.5L163.9 197.5L164.0 197.5L164.0 188.7L168.8 188.7L168.8 212L164.1 212L164.1 209.2L163.9 209.2Q163.5 209.9 162.9 210.6Q162.3 211.4 161.3 211.8Q160.3 212.3 158.9 212.3ZM160.4 208.4L160.4 208.4Q161.6 208.4 162.4 207.8Q163.2 207.1 163.7 206.0Q164.1 204.8 164.1 203.3L164.1 203.3Q164.1 201.7 163.7 200.6Q163.3 199.4 162.4 198.8Q161.6 198.2 160.4 198.2L160.4 198.2Q159.3 198.2 158.4 198.8Q157.6 199.5 157.2 200.6Q156.8 201.8 156.8 203.3L156.8 203.3Q156.8 204.8 157.2 206.0Q157.6 207.1 158.4 207.8Q159.3 208.4 160.4 208.4ZM177.6 212L172.8 212L172.8 194.5L177.6 194.5L177.6 212ZM175.2 192.3L175.2 192.3Q174.2 192.3 173.4 191.6Q172.6 190.9 172.6 189.8L172.6 189.8Q172.6 188.8 173.4 188.1Q174.2 187.4 175.2 187.4L175.2 187.4Q176.3 187.4 177.1 188.1Q177.9 188.8 177.9 189.8L177.9 189.8Q177.9 190.9 177.1 191.6Q176.3 192.3 175.2 192.3ZM186.5 212.3L186.5 212.3Q184.8 212.3 183.5 211.7Q182.2 211.2 181.4 210.0Q180.7 208.9 180.7 207.1L180.7 207.1Q180.7 205.7 181.2 204.7Q181.8 203.7 182.7 203.1Q183.6 202.5 184.8 202.2Q186.0 201.9 187.3 201.8L187.3 201.8Q188.8 201.6 189.7 201.4Q190.6 201.3 191.1 201.0Q191.5 200.7 191.5 200.2L191.5 200.2L191.5 200.1Q191.5 199.0 190.8 198.4Q190.1 197.9 188.9 197.9L188.9 197.9Q187.6 197.9 186.8 198.4Q186.0 199 185.8 199.9L185.8 199.9L181.3 199.5Q181.6 197.9 182.6 196.7Q183.6 195.6 185.2 194.9Q186.8 194.3 188.9 194.3L188.9 194.3Q190.4 194.3 191.7 194.7Q193.0 195 194.1 195.7Q195.1 196.4 195.7 197.6Q196.3 198.7 196.3 200.2L196.3 200.2L196.3 212L191.7 212L191.7 209.6L191.6 209.6Q191.2 210.4 190.5 211.0Q189.8 211.6 188.8 212.0Q187.8 212.3 186.5 212.3ZM187.9 209.0L187.9 209.0Q188.9 209.0 189.8 208.6Q190.6 208.1 191.0 207.4Q191.5 206.7 191.5 205.8L191.5 205.8L191.5 203.9Q191.3 204.1 190.9 204.2Q190.5 204.3 190.0 204.4Q189.5 204.5 189.0 204.6Q188.5 204.6 188.1 204.7L188.1 204.7Q187.3 204.8 186.7 205.1Q186.0 205.4 185.7 205.8Q185.3 206.3 185.3 207.0L185.3 207.0Q185.3 208.0 186.0 208.5Q186.8 209.0 187.9 209.0ZM200.1 188.7L204.9 188.7L204.9 212L200.1 212L200.1 188.7ZM216.7 212.3L216.7 212.3Q214.0 212.3 212.1 211.2Q210.2 210.1 209.1 208.1Q208.1 206.0 208.1 203.3L208.1 203.3Q208.1 200.6 209.1 198.6Q210.2 196.6 212.1 195.4Q214.0 194.3 216.7 194.3L216.7 194.3Q219.3 194.3 221.2 195.4Q223.2 196.6 224.2 198.6Q225.3 200.6 225.3 203.3L225.3 203.3Q225.3 206.0 224.2 208.1Q223.2 210.1 221.2 211.2Q219.3 212.3 216.7 212.3ZM216.7 208.6L216.7 208.6Q217.9 208.6 218.7 207.9Q219.5 207.2 219.9 206.0Q220.3 204.8 220.3 203.3L220.3 203.3Q220.3 201.8 219.9 200.6Q219.5 199.4 218.7 198.7Q217.9 198.0 216.7 198.0L216.7 198.0Q215.5 198.0 214.7 198.7Q213.8 199.4 213.4 200.6Q213.0 201.8 213.0 203.3L213.0 203.3Q213.0 204.8 213.4 206.0Q213.8 207.2 214.7 207.9Q215.5 208.6 216.7 208.6ZM236.3 218.9L236.3 218.9Q233.9 218.9 232.3 218.3Q230.6 217.6 229.6 216.5Q228.6 215.4 228.3 214.0L228.3 214.0L232.8 213.4Q233.0 214.0 233.4 214.4Q233.9 214.9 234.6 215.2Q235.3 215.4 236.4 215.4L236.4 215.4Q238.0 215.4 239.0 214.7Q240.0 213.9 240.0 212.1L240.0 212.1L240.0 208.9L239.8 208.9Q239.5 209.6 238.9 210.3Q238.2 210.9 237.2 211.3Q236.2 211.8 234.9 211.8L234.9 211.8Q232.9 211.8 231.3 210.8Q229.7 209.9 228.7 208.0Q227.8 206.1 227.8 203.2L227.8 203.2Q227.8 200.3 228.7 198.3Q229.7 196.3 231.3 195.3Q232.9 194.3 234.8 194.3L234.8 194.3Q236.3 194.3 237.3 194.8Q238.3 195.3 238.9 196.0Q239.5 196.8 239.8 197.5L239.8 197.5L240.0 197.5L240.0 194.5L244.8 194.5L244.8 212.2Q244.8 214.4 243.7 215.9Q242.6 217.4 240.7 218.2Q238.8 218.9 236.3 218.9ZM236.4 208.1L236.4 208.1Q237.6 208.1 238.4 207.5Q239.2 206.9 239.6 205.8Q240.1 204.8 240.1 203.2L240.1 203.2Q240.1 201.7 239.6 200.6Q239.2 199.4 238.4 198.8Q237.6 198.2 236.4 198.2L236.4 198.2Q235.2 198.2 234.4 198.8Q233.6 199.5 233.1 200.6Q232.7 201.7 232.7 203.2L232.7 203.2Q232.7 204.7 233.1 205.8Q233.6 206.9 234.4 207.5Q235.2 208.1 236.4 208.1ZM248.9 200.5L259.6 200.5L259.6 204.4L248.9 204.4L248.9 200.5ZM278.2 199.5L278.2 199.5L273.8 199.8Q273.7 199.2 273.3 198.8Q272.9 198.3 272.3 198.0Q271.7 197.8 270.9 197.8L270.9 197.8Q269.7 197.8 269.0 198.2Q268.2 198.7 268.2 199.5L268.2 199.5Q268.2 200.1 268.7 200.5Q269.2 201.0 270.4 201.2L270.4 201.2L273.6 201.9Q276.1 202.4 277.4 203.5Q278.6 204.7 278.6 206.6L278.6 206.6Q278.6 208.3 277.6 209.6Q276.6 210.9 274.8 211.6Q273.1 212.3 270.8 212.3L270.8 212.3Q267.4 212.3 265.3 210.9Q263.3 209.4 262.9 206.9L262.9 206.9L267.7 206.7Q267.9 207.8 268.7 208.3Q269.5 208.9 270.8 208.9L270.8 208.9Q272.1 208.9 272.9 208.4Q273.7 207.9 273.7 207.1L273.7 207.1Q273.7 206.4 273.1 206.0Q272.6 205.6 271.4 205.3L271.4 205.3L268.4 204.7Q265.9 204.2 264.6 203.0Q263.4 201.7 263.4 199.8L263.4 199.8Q263.4 198.1 264.3 196.9Q265.2 195.6 266.9 195.0Q268.5 194.3 270.8 194.3L270.8 194.3Q274.1 194.3 276.0 195.7Q277.9 197.1 278.2 199.5ZM286.5 201.9L286.5 201.9L286.5 212L281.7 212L281.7 194.5L286.3 194.5L286.3 197.6L286.5 197.6Q287.1 196.1 288.4 195.2Q289.8 194.3 291.7 194.3L291.7 194.3Q293.5 194.3 294.9 195.1Q296.3 195.9 297 197.4Q297.8 198.9 297.8 200.9L297.8 200.9L297.8 212L292.9 212L292.9 201.8Q292.9 200.1 292.1 199.2Q291.3 198.3 289.8 198.3L289.8 198.3Q288.8 198.3 288.1 198.8Q287.3 199.2 286.9 200.0Q286.5 200.8 286.5 201.9ZM306.4 212L301.6 212L301.6 194.5L306.4 194.5L306.4 212ZM304.0 192.3L304.0 192.3Q302.9 192.3 302.1 191.6Q301.4 190.9 301.4 189.8L301.4 189.8Q301.4 188.8 302.1 188.1Q302.9 187.4 304.0 187.4L304.0 187.4Q305.1 187.4 305.8 188.1Q306.6 188.8 306.6 189.8L306.6 189.8Q306.6 190.9 305.8 191.6Q305.1 192.3 304.0 192.3ZM315.1 218.5L310.3 218.5L310.3 194.5L315.0 194.5L315.0 197.5L315.3 197.5Q315.6 196.8 316.2 196.0Q316.8 195.3 317.8 194.8Q318.8 194.3 320.2 194.3L320.2 194.3Q322.1 194.3 323.7 195.3Q325.4 196.3 326.3 198.3Q327.3 200.3 327.3 203.3L327.3 203.3Q327.3 206.2 326.3 208.2Q325.4 210.2 323.8 211.3Q322.2 212.3 320.2 212.3L320.2 212.3Q318.8 212.3 317.8 211.8Q316.8 211.4 316.2 210.6Q315.6 209.9 315.3 209.2L315.3 209.2L315.1 209.2L315.1 218.5ZM315 203.3L315 203.3Q315 204.8 315.4 206.0Q315.9 207.1 316.7 207.8Q317.5 208.4 318.7 208.4L318.7 208.4Q319.9 208.4 320.7 207.8Q321.5 207.1 321.9 206.0Q322.3 204.8 322.3 203.3L322.3 203.3Q322.3 201.8 321.9 200.6Q321.5 199.5 320.7 198.8Q319.9 198.2 318.7 198.2L318.7 198.2Q317.5 198.2 316.7 198.8Q315.9 199.4 315.4 200.6Q315 201.7 315 203.3ZM335.3 218.5L330.5 218.5L330.5 194.5L335.3 194.5L335.3 197.5L335.5 197.5Q335.8 196.8 336.4 196.0Q337.0 195.3 338.0 194.8Q339.0 194.3 340.5 194.3L340.5 194.3Q342.4 194.3 344.0 195.3Q345.6 196.3 346.6 198.3Q347.5 200.3 347.5 203.3L347.5 203.3Q347.5 206.2 346.6 208.2Q345.6 210.2 344.0 211.3Q342.4 212.3 340.4 212.3L340.4 212.3Q339.0 212.3 338.1 211.8Q337.1 211.4 336.4 210.6Q335.8 209.9 335.5 209.2L335.5 209.2L335.3 209.2L335.3 218.5ZM335.2 203.3L335.2 203.3Q335.2 204.8 335.7 206.0Q336.1 207.1 336.9 207.8Q337.7 208.4 338.9 208.4L338.9 208.4Q340.1 208.4 340.9 207.8Q341.7 207.1 342.2 206.0Q342.6 204.8 342.6 203.3L342.6 203.3Q342.6 201.8 342.2 200.6Q341.7 199.5 340.9 198.8Q340.1 198.2 338.9 198.2L338.9 198.2Q337.7 198.2 336.9 198.8Q336.1 199.4 335.7 200.6Q335.2 201.7 335.2 203.3ZM358.7 212.3L358.7 212.3Q356 212.3 354.1 211.2Q352.1 210.1 351.1 208.1Q350.0 206.1 350.0 203.4L350.0 203.4Q350.0 200.7 351.1 198.6Q352.1 196.6 354.0 195.5Q355.9 194.3 358.5 194.3L358.5 194.3Q360.2 194.3 361.7 194.9Q363.2 195.4 364.3 196.5Q365.5 197.6 366.1 199.3Q366.7 201.0 366.7 203.2L366.7 203.2L366.7 204.5L352.0 204.5L352.0 201.5L362.1 201.5Q362.1 200.5 361.7 199.7Q361.2 198.9 360.4 198.4Q359.6 197.9 358.6 197.9L358.6 197.9Q357.5 197.9 356.6 198.4Q355.8 198.9 355.3 199.8Q354.8 200.6 354.8 201.7L354.8 201.7L354.8 204.5Q354.8 205.8 355.3 206.8Q355.8 207.7 356.7 208.2Q357.6 208.7 358.8 208.7L358.8 208.7Q359.6 208.7 360.3 208.5Q360.9 208.3 361.4 207.8Q361.9 207.4 362.1 206.7L362.1 206.7L366.6 207Q366.3 208.6 365.2 209.8Q364.2 211.0 362.5 211.7Q360.9 212.3 358.7 212.3ZM368.6 194.5L379.1 194.5L379.1 198.2L368.6 198.2L368.6 194.5ZM371.0 207.3L371.0 190.4L375.9 190.4L375.9 206.6Q375.9 207.3 376.1 207.7Q376.3 208.0 376.6 208.2Q377.0 208.3 377.5 208.3L377.5 208.3Q377.8 208.3 378.2 208.3Q378.5 208.2 378.7 208.2L378.7 208.2L379.5 211.8Q379.1 211.9 378.4 212.1Q377.8 212.2 376.8 212.2L376.8 212.2Q375.1 212.3 373.8 211.8Q372.5 211.2 371.7 210.1Q371.0 209.0 371.0 207.3L371.0 207.3Z "/></svg>